# xmcd
#
# Track frame offsets: 
#        150
#        16875
#        38137
#        55675
#        77350
#        95075
#        113637
#        135487
#        154037
#        171812
#        196800
#        214125
#        235300
#        249275
#
# Disc length: 3652 seconds
#
# Revision: 4
# Processed by: cddbd v1.5.2PL0 Copyright (c) Steve Scherf et al.
# Submitted via: ExactAudioCopy v1.1
#
DISCID=a70e420e
DTITLE=Backstreet Boys - Backstreet Boys
DYEAR=1900
DGENRE=Rock
TTITLE0=We've got it goin' on
TTITLE1=Anywhere for you
TTITLE2=Get down (You're the one for me)
TTITLE3=I'll never break your heart
TTITLE4=Quit playin' games (with my heart)
TTITLE5=Boys will be boys
TTITLE6=Just to be close to you
TTITLE7=I wanna be with you
TTITLE8=Everytime I close my eyes
TTITLE9=Darlin'
TTITLE10=Let's have a party
TTITLE11=Roll with it
TTITLE12=Nobody but you
TTITLE13=Lay down beside me
EXTD=ID3G: 17
EXTT0=
EXTT1=
EXTT2=
EXTT3=
EXTT4=
EXTT5=
EXTT6=
EXTT7=
EXTT8=
EXTT9=
EXTT10=
EXTT11=
EXTT12=
EXTT13=
PLAYORDER=
